<?xml version="1.0" standalone="no"?>
<!DOCTYPE svg PUBLIC "-//W3C//DTD SVG 20010904//EN"
 "http://www.w3.org/TR/2001/REC-SVG-20010904/DTD/svg10.dtd">
<svg version="1.0" xmlns="http://www.w3.org/2000/svg"
 width="512.000000pt" height="512.000000pt" viewBox="0 0 512.000000 512.000000"
 preserveAspectRatio="xMidYMid meet">
<metadata>
Created by potrace 1.14, written by Peter Selinger 2001-2017
</metadata>
<g transform="translate(0.000000,512.000000) scale(0.100000,-0.100000)"
fill="#000000" stroke="none">
<path d="M2380 4616 c-364 -53 -656 -196 -878 -431 -199 -210 -318 -462 -353
-745 -16 -134 -23 -1072 -10 -1435 12 -349 19 -392 98 -590 197 -496 408 -738
740 -848 335 -111 863 -116 1156 -10 228 81 428 241 563 448 108 165 233 459
265 620 21 103 21 1877 0 1980 -62 313 -253 577 -564 779 -153 100 -335 175
-529 217 -123 26 -359 33 -488 15z m120 -329 l0 -243 -34 -33 c-79 -77 -111
-221 -111 -506 0 -291 33 -435 116 -510 l39 -35 0 -125 0 -125 -640 0 -640 0
0 198 c0 249 15 512 35 620 43 226 177 467 353 633 217 205 481 319 837 362
17 2 33 5 38 6 4 0 7 -108 7 -242z m352 212 c238 -48 484 -169 654 -321 167
-150 265 -294 330 -488 l29 -85 3 -447 3 -448 -631 0 -630 0 0 128 0 128 34
33 c79 77 111 221 111 506 0 291 -33 435 -116 510 l-39 35 0 241 0 242 78 -7
c42 -4 121 -16 174 -27z m-253 -602 c72 -149 72 -629 0 -781 -25 -54 -42 -62
-69 -33 -45 48 -72 206 -72 422 -1 218 29 380 77 429 22 22 41 11 64 -37z
m1271 -1754 c0 -511 -1 -515 -61 -683 -43 -118 -138 -310 -197 -400 -185 -279
-447 -431 -809 -471 -129 -14 -403 -6 -548 16 -287 44 -475 136 -624 308 -100
115 -201 295 -297 529 -77 188 -84 226 -94 553 -5 160 -10 363 -10 453 l0 162
1320 0 1320 0 0 -467z"/>
</g>
</svg>
