<?xml version="1.0" standalone="no"?>
<!DOCTYPE svg PUBLIC "-//W3C//DTD SVG 20010904//EN"
 "http://www.w3.org/TR/2001/REC-SVG-20010904/DTD/svg10.dtd">
<svg version="1.0" xmlns="http://www.w3.org/2000/svg"
 width="2048.000000pt" height="2048.000000pt" viewBox="0 0 2048.000000 2048.000000"
 preserveAspectRatio="xMidYMid meet">
<metadata>
Created by potrace 1.14, written by Peter Selinger 2001-2017
</metadata>
<g transform="translate(0.000000,2048.000000) scale(0.100000,-0.100000)"
fill="#000000" stroke="none">
<path d="M4010 10210 l0 -6320 6320 0 6320 0 0 6320 0 6320 -6320 0 -6320 0 0
-6320z m2889 4386 c389 -52 685 -150 922 -307 117 -77 295 -254 368 -364 99
-152 169 -323 211 -520 28 -127 38 -441 21 -596 -63 -550 -330 -940 -804
-1179 -122 -61 -319 -135 -414 -155 l-31 -6 25 -62 c105 -260 290 -515 480
-660 127 -97 307 -189 433 -222 104 -27 335 -16 463 21 16 5 17 -21 17 -440
l0 -446 -199 0 c-323 0 -552 40 -794 140 -224 92 -407 214 -601 400 -251 241
-432 510 -570 845 -35 88 -116 330 -116 351 0 2 -94 4 -210 4 l-210 0 0 -870
0 -870 -445 0 -445 0 0 2481 0 2480 888 -4 c754 -3 906 -6 1011 -21z m4087 14
c324 -25 608 -96 822 -204 165 -84 362 -258 458 -406 91 -141 160 -320 190
-494 19 -107 14 -366 -10 -481 -30 -147 -94 -294 -187 -424 -60 -86 -190 -224
-260 -278 -27 -20 -49 -40 -49 -43 1 -3 40 -23 88 -45 187 -86 370 -232 490
-390 67 -89 152 -256 186 -363 79 -251 75 -567 -10 -821 -189 -569 -734 -917
-1549 -991 -62 -6 -462 -10 -922 -10 l-813 0 0 2480 0 2480 719 0 c395 0 776
-5 847 -10z m-686 -7765 l0 -365 -2530 0 -2530 0 0 365 0 365 2530 0 2530 0 0
-365z"/>
<path d="M5890 13009 l0 -861 378 5 c393 5 483 13 657 58 239 62 401 179 495
359 122 235 132 620 21 855 -97 207 -305 350 -595 409 -133 28 -277 36 -617
36 l-339 0 0 -861z"/>
<path d="M10310 13220 l0 -680 248 0 c283 1 450 11 542 35 215 56 371 215 431
442 27 99 29 301 5 413 -58 274 -265 426 -625 460 -58 5 -217 10 -353 10
l-248 0 0 -680z"/>
<path d="M10310 11099 l0 -721 383 5 c464 6 566 21 754 107 100 46 157 85 225
152 147 148 204 326 179 556 -36 318 -188 496 -492 577 -149 39 -239 45 -656
45 l-393 0 0 -721z"/>
</g>
</svg>
